HIERARCHY
ROOT Hips
{
	OFFSET 0.00000 0.00000 0.00000
	CHANNELS 6 Xposition Yposition Zposition Zrotation Yrotation Xrotation 
	JOINT LHipJoint
	{
		OFFSET 0 0 0
		CHANNELS 3 Zrotation Yrotation Xrotation
		JOINT LeftHip
		{
			OFFSET 1.56857 -1.73443 1.15205
			CHANNELS 3 Zrotation Yrotation Xrotation
			JOINT LeftKnee
			{
				OFFSET 2.39362 -6.57643 0.00000
				CHANNELS 3 Zrotation Yrotation Xrotation
				JOINT LeftAnkle
				{
					OFFSET 2.50952 -6.89485 0.00000
					CHANNELS 3 Zrotation Yrotation Xrotation
					JOINT LeftToe
					{
						OFFSET 0.17171 -0.47178 1.88682
						CHANNELS 3 Zrotation Yrotation Xrotation
						End Site
						{
							OFFSET 0.00000 -0.00000 0.98146
						}
					}
				}
			}
		}
	}
	JOINT RHipJoint
	{
		OFFSET 0 0 0
		CHANNELS 3 Zrotation Yrotation Xrotation
		JOINT RightHip
		{
			OFFSET -1.28153 -1.73443 1.15205
			CHANNELS 3 Zrotation Yrotation Xrotation
			JOINT RightKnee
			{
				OFFSET -2.26861 -6.23296 0.00000
				CHANNELS 3 Zrotation Yrotation Xrotation
				JOINT RightAnkle
				{
					OFFSET -2.54143 -6.98254 0.00000
					CHANNELS 3 Zrotation Yrotation Xrotation
					JOINT RightToe
					{
						OFFSET -0.23309 -0.64041 1.93119
						CHANNELS 3 Zrotation Yrotation Xrotation
						End Site
						{
							OFFSET -0.00000 -0.00000 1.02013
						}
					}
				}
			}
		}
	}
	JOINT lowerback
	{
		OFFSET 0 0 0
		CHANNELS 3 Zrotation Yrotation Xrotation
		JOINT Chest
		{
			OFFSET -0.07096 2.10460 -0.27878
			CHANNELS 3 Zrotation Yrotation Xrotation
			JOINT Chest2
			{
				OFFSET -0.00826 2.13662 -0.08279
				CHANNELS 3 Zrotation Yrotation Xrotation
				JOINT lowerneck
				{
					OFFSET 0 0 0
					CHANNELS 3 Zrotation Yrotation Xrotation
					JOINT Neck
					{
						OFFSET 0.03239 1.77799 0.24435
						CHANNELS 3 Zrotation Yrotation Xrotation
						JOINT Head
						{
							OFFSET 0.01026 1.74194 -0.49664
							CHANNELS 3 Zrotation Yrotation Xrotation
							End Site
							{
								OFFSET 0.00170 1.83057 -0.19653
							}
						}
					}
				}
				JOINT LeftCollar
				{
					OFFSET 0 0 0
					CHANNELS 3 Zrotation Yrotation Xrotation
					JOINT LeftShoulder
					{
						OFFSET 3.19178 1.35907 -0.31412
CHANNELS 3 Zrotation Xrotation Yrotation
						JOINT LeftElbow
						{
OFFSET 0 -4.852470 -0.000000
CHANNELS 3 Zrotation Xrotation Yrotation
							JOINT LeftWrist
							{
OFFSET 0 -3.555840 0.000000
CHANNELS 3 Zrotation Xrotation Yrotation
								JOINT lhand
								{
									OFFSET 0 0 0
CHANNELS 3 Zrotation Xrotation Yrotation
									JOINT LFingers
									{
OFFSET 0 -0.693200 0.000000
CHANNELS 3 Zrotation Xrotation Yrotation
										End Site
										{
OFFSET 0 -0.558880 0.000000
										}
									}
								}
								JOINT LThumb
								{
OFFSET 0 0.000000 0.000000
CHANNELS 3 Zrotation Xrotation Yrotation
									End Site
									{
OFFSET 0 -0.567410 0.567410
									}
								}
							}
						}
					}
				}
				JOINT RightCollar
				{
					OFFSET 0 0 0
					CHANNELS 3 Zrotation Yrotation Xrotation
					JOINT RightShoulder
					{
						OFFSET -3.28999 1.24191 -0.26899
CHANNELS 3 Zrotation Xrotation Yrotation
						JOINT RightElbow
						{
OFFSET 0 -4.644620 0.000000
CHANNELS 3 Zrotation Xrotation Yrotation
							JOINT RightWrist
							{
OFFSET 0 -3.407030 0.000000
CHANNELS 3 Zrotation Xrotation Yrotation
								JOINT rhand
								{
									OFFSET 0 0 0
CHANNELS 3 Zrotation Xrotation Yrotation
									JOINT RFingers
									{
OFFSET 0 -0.619580 0.000000
CHANNELS 3 Zrotation Xrotation Yrotation
										End Site
										{
OFFSET 0 -0.499520 0.000000
										}
									}
								}
								JOINT RThumb
								{
OFFSET 0 0.000000 0.000000
CHANNELS 3 Zrotation Xrotation Yrotation
									End Site
									{
OFFSET 0 -0.507150 0.507150
									}
								}
							}
						}
					}
				}
			}
		}
	}
}
MOTION
Frames: 7
Frame Time: 0.008333333333333333
-29.692200 17.044100 1.114500 55.171700 84.424000 55.132700 0.000000 0.000000 0.000000 -17.465200 1.905500 12.137000 0.037100 -1.242700 -3.417000 0.003300 10.982900 -15.684500 0.668700 -5.229500 -14.564300 0.000000 0.000000 0.000000 5.536300 -4.953800 7.051300 -0.012600 -0.724500 1.991000 -0.480600 5.469600 -12.369900 -0.004300 -0.421400 1.158000 -5.600800 1.613900 3.823900 -1.541400 1.917900 0.449500 1.445300 1.004900 -1.811300 4.595900 2.303900 -21.634200 -2.897700 2.464400 20.063800 -1.412300 1.170200 10.058800 0.000000 -0.000000 0.000000 3.641400 -0.067500 -37.573400 11.263600 -18.691200 1.859500 14.310700 11.683800 23.621800 0.000000 0.000000 0.000000 -7.125000 0.000000 0.000000 -9.207600 5.950000 -8.314100 0.000000 -0.000000 0.000000 -3.040300 3.945100 35.143100 -16.561900 -26.276600 -3.891400 -10.685000 11.374600 31.235000 0.000000 0.000000 0.000000 7.125000 0.000000 -0.000000 24.171800 60.002600 -9.168800
-29.693969 17.042316 1.117052 54.402221 84.418337 54.388778 0.000000 0.000000 0.000000 -17.122895 2.659977 11.692188 0.031905 -1.152664 -3.168844 0.064845 10.130783 -15.427639 0.562512 -4.802814 -13.347243 0.000000 0.000000 0.000000 5.637501 -4.892189 7.007674 -0.012992 -0.736163 2.023146 -0.478206 5.503309 -12.342394 -0.005635 -0.481914 1.324223 -5.673401 1.596720 3.758560 -1.466290 1.895432 0.420828 1.565705 0.994204 -1.807777 4.657518 2.328390 -22.005414 -3.093085 2.527667 20.609839 -1.483352 1.181688 10.329448 0.000000 0.000000 0.000000 3.612322 -0.080544 -37.338551 11.301855 -18.749501 1.871785 14.176989 12.078989 24.016836 0.000000 0.000000 0.000000 -7.125000 0.000000 0.000000 -9.310838 5.570807 -8.478336 0.000000 0.000000 0.000000 -3.241854 3.919010 35.340339 -16.682225 -26.436966 -3.944843 -10.684482 11.148151 31.840602 0.000000 0.000000 0.000000 7.125000 0.000000 0.000000 24.691711 60.547061 -9.703709
-29.693433 17.043128 1.118175 54.284518 84.354055 54.261204 0.000000 0.000000 0.000000 -17.371338 2.205122 12.011050 0.035816 -1.222078 -3.360053 0.021954 10.697141 -15.560519 0.593639 -4.932469 -13.716054 0.000000 0.000000 0.000000 5.588196 -4.881337 7.008574 -0.013577 -0.751766 2.065933 -0.488503 5.522020 -12.472575 -0.006882 -0.536123 1.473095 -5.776018 1.592220 3.711362 -1.447899 1.889175 0.423633 1.643484 0.991219 -1.781920 4.541365 2.385221 -22.239934 -2.924433 2.595689 20.774734 -1.392917 1.223073 10.431084 0.000000 0.000000 0.000000 3.650357 -0.132544 -37.432031 11.368654 -18.851033 1.893283 14.356019 12.016545 24.414521 0.000000 0.000000 0.000000 -7.125000 0.000000 0.000000 -9.222624 5.148207 -8.470562 0.000000 0.000000 0.000000 -3.270640 3.746898 35.262438 -16.541670 -26.249550 -3.882432 -10.756076 11.293252 31.753354 0.000000 0.000000 0.000000 7.125000 0.000000 0.000000 24.541019 60.485841 -9.603892
-29.691582 17.048192 1.120367 53.679267 84.411045 53.560855 0.000000 0.000000 0.000000 -17.132978 2.555039 11.959808 0.034362 -1.195840 -3.287891 0.037716 10.427765 -15.423373 0.591462 -4.923229 -13.689806 0.000000 0.000000 0.000000 5.674699 -4.977477 7.088495 -0.013375 -0.746019 2.050288 -0.476155 5.720263 -12.334312 -0.006345 -0.512826 1.409129 -5.729567 1.567096 3.680762 -1.391623 1.861763 0.462997 1.678763 0.974933 -1.722627 4.689215 2.401429 -22.025012 -3.121461 2.617702 20.457215 -1.484121 1.219908 10.282613 0.000000 0.000000 0.000000 3.611170 -0.320066 -37.837760 11.244847 -18.662547 1.853463 14.944591 11.457732 24.376891 0.000000 0.000000 0.000000 -7.125000 0.000000 0.000000 -8.859108 5.106980 -8.135307 0.000000 0.000000 0.000000 -3.297221 3.757847 35.413569 -16.566424 -26.282695 -3.893429 -10.766054 11.170790 31.983782 0.000000 0.000000 0.000000 7.125000 0.000000 0.000000 24.732449 60.694864 -9.808337
-29.695931 17.046275 1.119600 53.399548 84.281004 53.213228 0.000000 0.000000 0.000000 -17.341604 2.334418 12.152940 0.035850 -1.222243 -3.360550 0.039759 10.595878 -15.684308 0.519963 -4.621224 -12.831355 0.000000 0.000000 0.000000 5.619339 -4.798189 7.168956 -0.013635 -0.753210 2.070011 -0.475423 5.603892 -12.315538 -0.004716 -0.437020 1.200903 -5.820166 1.595811 3.837679 -1.425910 1.879964 0.368748 1.686553 0.990809 -1.910949 4.541234 2.381522 -22.041673 -2.827311 2.574043 20.689599 -1.361949 1.226901 10.361587 0.000000 0.000000 0.000000 3.628860 -0.189653 -38.261208 11.275452 -18.709258 1.863324 16.697022 10.576645 24.888813 0.000000 0.000000 0.000000 -7.125000 0.000000 0.000000 -7.819564 4.340924 -7.274709 0.000000 0.000000 0.000000 -3.142251 3.850405 35.593965 -16.468230 -26.151352 -3.850054 -10.913717 11.320780 31.831634 0.000000 0.000000 0.000000 7.125000 0.000000 0.000000 24.446275 60.593370 -9.627907
-29.699289 17.043089 1.121042 52.879739 84.158194 52.628014 0.000000 0.000000 0.000000 -17.181371 2.999704 11.857573 0.031603 -1.147021 -3.153336 0.028221 10.275057 -15.073281 0.633435 -5.091961 -14.170982 0.000000 0.000000 0.000000 5.555308 -4.693391 7.216678 -0.013679 -0.754106 2.072487 -0.476065 5.596648 -12.322665 -0.009141 -0.608946 1.673290 -5.852024 1.633015 3.889946 -1.474410 1.921533 0.316755 1.649242 1.014810 -1.996399 4.660449 2.352369 -21.944142 -3.009633 2.545984 20.690432 -1.451659 1.202509 10.347083 0.000000 0.000000 0.000000 3.621067 -0.072282 -38.518245 11.288615 -18.729354 1.867544 16.840678 10.509935 24.657678 0.000000 0.000000 0.000000 -7.125000 0.000000 0.000000 -7.714470 4.554052 -7.144135 0.000000 0.000000 0.000000 -2.915091 4.036522 35.424658 -16.415752 -26.081056 -3.826913 -10.572983 11.330083 31.820917 0.000000 0.000000 0.000000 7.125000 0.000000 0.000000 24.790124 60.503038 -9.718774
-29.695522 17.045411 1.121256 50.126246 84.305703 49.680871 0.000000 0.000000 0.000000 -17.211933 2.083706 12.811104 0.043482 -1.344322 -3.696803 0.002313 11.196554 -15.976301 0.497735 -4.522430 -12.551431 0.000000 0.000000 0.000000 5.932529 -4.698311 7.427630 -0.014335 -0.773684 2.126210 -0.484965 5.674546 -12.440256 -0.004300 -0.422447 1.160709 -5.505809 1.668358 3.975211 -1.437664 1.980279 0.390741 1.489796 1.038818 -1.961631 4.787971 2.363870 -21.935169 -3.073668 2.530073 20.563325 -1.497515 1.196065 10.301598 0.000000 0.000000 0.000000 3.534098 -0.148947 -38.607217 11.255109 -18.678270 1.856804 14.974609 11.280457 25.610918 0.000000 0.000000 0.000000 -7.125000 0.000000 0.000000 -8.919029 3.862150 -8.402298 0.000000 0.000000 0.000000 -2.790047 4.132776 35.676086 -16.382155 -26.036011 -3.812127 -10.600242 11.407486 31.171155 0.000000 0.000000 0.000000 7.125000 0.000000 0.000000 24.205988 59.925384 -9.137727
